<?xml version="1.0" encoding="iso-8859-1"?>
<!-- Generator: Adobe Illustrator 19.0.0, SVG Export Plug-In . SVG Version: 6.00 Build 0)  -->
<svg version="1.1" id="Capa_1" xmlns="http://www.w3.org/2000/svg" xmlns:xlink="http://www.w3.org/1999/xlink" x="0px" y="0px"
	 viewBox="0 0 512 512" style="enable-background:new 0 0 512 512;" xml:space="preserve">
<circle style="fill:#00ABE9;" cx="256" cy="256" r="256"/>
<path style="fill:#0080AF;" d="M512,256c0-1.75-0.031-3.493-0.066-5.234L395,133.832h-16.578l-16-16.832L117,395l115.956,115.956
	C240.549,511.634,248.231,512,256,512C397.385,512,512,397.385,512,256z"/>
<path style="fill:#FDBF00;" d="M149.578,117v278h212.844V117H149.578z"/>
<g>
	<path style="fill:#D3D3D8;" d="M354.277,133.832c0,29.233,0-18.65,0,48.867H395v-48.867H354.277z"/>
	<path style="fill:#D3D3D8;" d="M354.277,198.988c0,29.233,0-18.65,0,48.867H395v-48.867H354.277z"/>
	<path style="fill:#D3D3D8;" d="M354.277,264.145c0,29.233,0-18.65,0,48.867H395v-48.867H354.277z"/>
	<path style="fill:#D3D3D8;" d="M354.277,329.301c0,29.233,0-18.65,0,48.867H395v-48.867H354.277z"/>
</g>
<rect x="256" y="117" style="fill:#FF9F00;" width="106.42" height="278"/>
<g>
	<path style="fill:#5A5A5A;" d="M165.867,395H117V117h48.867V395z"/>
	<path style="fill:#5A5A5A;" d="M311.708,292.161c-12.217-18.244-32.252-28.669-55.219-28.669H256
		c-22.967,0.163-43.818,10.914-55.708,28.669l-1.303,2.118v35.022h114.023v-35.022L311.708,292.161z"/>
	<path style="fill:#5A5A5A;" d="M256,182.699c-22.479,0-40.723,18.244-40.723,40.723s18.244,40.723,40.723,40.723
		s40.723-18.244,40.723-40.723S278.479,182.699,256,182.699z"/>
</g>
<g>
	<path style="fill:#444444;" d="M296.723,223.422c0,22.479-18.244,40.723-40.723,40.723V182.7
		C278.479,182.699,296.723,200.943,296.723,223.422z"/>
	<path style="fill:#444444;" d="M313.012,294.279v35.022H256v-65.808h0.489c22.967,0,43.002,10.425,55.219,28.669L313.012,294.279z"
		/>
</g>
<g>
</g>
<g>
</g>
<g>
</g>
<g>
</g>
<g>
</g>
<g>
</g>
<g>
</g>
<g>
</g>
<g>
</g>
<g>
</g>
<g>
</g>
<g>
</g>
<g>
</g>
<g>
</g>
<g>
</g>
</svg>
