<svg height="512pt" viewBox="0 0 512 512" width="512pt" xmlns="http://www.w3.org/2000/svg"><path d="m488.84375 364.320312-21.1875 21.1875-170.214844-170.21875-170.019531-170.007812 21.199219-21.195312 170.035156 170.035156zm0 0" fill="#39689f"/><path d="m488.84375 364.320312-21.1875 21.1875-170.214844-170.21875 21.214844-21.167968zm0 0" fill="#224370"/><path d="m512 512h-512v-512zm0 0" fill="#83e46f"/><path d="m512 512h-512l256.316406-255.683594zm0 0" fill="#00b763"/><path d="m0 367.984375h144.015625v144.015625h-144.015625zm0 0" fill="#fd4a4a"/><path d="m104.585938 46.925781 45.679687-45.675781 21.1875 21.191406-45.675781 45.675782zm0 0" fill="#fd4a4a"/><g fill="#e70b6a"><path d="m444.808594 387.15625 45.679687-45.679688 21.1875 21.191407-45.675781 45.675781zm0 0"/><path d="m0 512 144.015625-143.664062v143.664062zm0 0"/></g></svg>