<?xml version="1.0" encoding="iso-8859-1"?>
<!-- Generator: Adobe Illustrator 19.0.0, SVG Export Plug-In . SVG Version: 6.00 Build 0)  -->
<svg version="1.1" id="Capa_1" xmlns="http://www.w3.org/2000/svg" xmlns:xlink="http://www.w3.org/1999/xlink" x="0px" y="0px"
	 viewBox="0 0 512.069 512.069" style="enable-background:new 0 0 512.069 512.069;" xml:space="preserve">
<circle style="fill:#4EBD9E;" cx="259.976" cy="255.364" r="252.062"/>
<polygon style="fill:#FFFFFF;" points="189.871,97.825 103.225,97.825 103.225,412.114 417.514,412.114 417.514,325.468 "/>
<path style="fill:#183651;" d="M417.514,419.991H103.225c-4.726,0-7.877-3.151-7.877-7.877V97.825c0-4.726,3.151-7.877,7.877-7.877
	h86.646c2.363,0,3.938,0.788,5.514,2.363l227.643,227.643c1.575,1.575,2.363,3.151,2.363,5.514v86.646
	C425.391,416.053,422.24,419.991,417.514,419.991z M111.102,404.237h298.535v-75.618L186.72,105.702h-75.618V404.237z"/>
<polygon style="fill:#E1E6E8;" points="103.225,11.179 103.225,97.825 189.871,97.825 "/>
<path style="fill:#183651;" d="M189.871,105.702h-86.646c-4.726,0-7.877-3.151-7.877-7.877V11.179c0-3.151,1.575-6.302,4.726-7.089
	c3.151-1.575,6.302-0.788,8.665,1.575l86.646,86.646c2.363,2.363,3.151,5.514,1.575,8.665
	C196.173,104.127,193.022,105.702,189.871,105.702z M111.102,89.948h59.865l-59.865-59.865V89.948z"/>
<polygon style="fill:#E1E6E8;" points="417.514,325.468 417.514,412.114 504.16,412.114 "/>
<g>
	<path style="fill:#183651;" d="M504.16,419.991h-86.646c-4.726,0-7.877-3.151-7.877-7.877v-86.646c0-3.151,1.575-6.302,4.726-7.089
		c3.151-1.575,6.302-0.788,8.665,1.575l86.646,86.646c2.363,2.363,3.151,5.514,1.575,8.665
		C510.462,417.628,507.311,419.991,504.16,419.991z M425.391,404.237h59.865l-59.865-59.865V404.237z"/>
	<path style="fill:#183651;" d="M499.434,480.644H103.225c-4.726,0-7.877-3.151-7.877-7.877c0-4.726,3.151-7.877,7.877-7.877
		h396.209c4.726,0,7.877,3.151,7.877,7.877C507.311,476.705,504.16,480.644,499.434,480.644z"/>
	<path style="fill:#183651;" d="M456.899,505.85c-2.363-3.151-2.363-8.665,1.575-11.028l28.357-22.055l-28.357-22.055
		c-3.151-2.363-3.938-7.877-1.575-11.028s7.877-3.938,11.028-1.575l36.234,28.357c1.575,1.575,3.151,3.938,3.151,6.302
		s-0.788,4.726-3.151,6.302l-36.234,28.357C464.776,509.788,459.262,509,456.899,505.85z"/>
	<path style="fill:#183651;" d="M134.733,507.425l-36.234-28.357c-1.575-1.575-3.151-3.938-3.151-6.302
		c0-2.363,0.788-4.726,3.151-6.302l36.234-28.357c3.151-2.363,8.665-2.363,11.028,1.575c2.363,3.151,2.363,8.665-1.575,11.028
		l-28.357,22.055l28.357,22.055c3.151,2.363,3.938,7.877,1.575,11.028C143.397,509,138.671,509.788,134.733,507.425z"/>
	<path style="fill:#183651;" d="M498.647,311.29L204.837,17.48c-3.151-3.151-3.151-7.877,0-11.028c3.151-3.151,7.877-3.151,11.028,0
		l293.809,293.022c3.151,3.151,3.151,7.877,0,11.028C506.523,313.653,501.797,313.653,498.647,311.29z"/>
	<path style="fill:#183651;" d="M503.373,312.865l-46.474-5.514c-3.938-0.788-7.089-4.726-7.089-8.665
		c0.788-3.938,4.726-7.089,8.665-7.089l36.234,4.726l-3.938-36.234c-0.788-3.938,2.363-7.877,7.089-8.665
		c4.726-0.788,7.877,2.363,8.665,7.089l5.514,45.686c0,2.363-0.788,4.726-2.363,6.302
		C508.099,312.865,505.736,313.653,503.373,312.865z"/>
	<path style="fill:#183651;" d="M215.865,65.53c-3.938,0-7.089-3.151-7.877-7.089l-5.514-45.686c0-2.363,0.788-4.726,2.363-6.302
		c1.575-1.575,3.938-2.363,6.302-2.363l45.686,5.514c3.938,0.788,7.089,4.726,7.089,8.665c-0.788,3.938-4.726,7.089-8.665,7.089
		l-36.234-4.726l4.726,36.234C224.53,60.804,220.591,65.53,215.865,65.53z"/>
	<path style="fill:#183651;" d="M36.271,419.991c-4.726,0-7.877-3.151-7.877-7.877V11.179c0-4.726,3.151-7.877,7.877-7.877
		s7.877,3.151,7.877,7.877v400.935C44.148,416.053,40.997,419.991,36.271,419.991z"/>
	<path style="fill:#183651;" d="M36.271,419.991c-2.363,0-4.726-0.788-6.302-3.151L1.613,380.607
		c-2.363-3.151-2.363-8.665,1.575-11.028c3.151-2.363,8.665-2.363,11.028,1.575l22.055,28.357l22.055-28.357
		c2.363-3.151,7.877-3.938,11.028-1.575s3.938,7.877,1.575,11.028L42.573,416.84C40.997,419.204,38.634,419.991,36.271,419.991z"/>
	<path style="fill:#183651;" d="M3.188,53.714c-3.151-2.363-3.938-7.877-1.575-11.028L29.97,6.453c3.151-3.938,9.452-3.938,12.603,0
		L70.93,42.687c2.363,3.151,2.363,8.665-1.575,11.028c-3.151,3.151-7.877,2.363-11.028-0.788L36.271,23.782L14.216,52.927
		C11.065,56.077,6.339,56.865,3.188,53.714z"/>
</g>
<polyline style="fill:#FCBD5E;" points="103.225,112.791 103.225,412.114 403.336,412.114 "/>
<path style="fill:#183651;" d="M403.336,419.991H104.013c-4.726,0-7.877-3.151-7.877-7.877V112.791c0-4.726,3.151-7.877,7.877-7.877
	c4.726,0,7.877,3.151,7.877,7.877v291.446h291.446c4.726,0,7.877,3.151,7.877,7.877
	C411.213,416.053,407.274,419.991,403.336,419.991z"/>
<rect x="103.225" y="333.345" style="fill:#FFFFFF;" width="78.769" height="78.769"/>
<g>
	<path style="fill:#183651;" d="M181.994,419.991h-78.769c-4.726,0-7.877-3.151-7.877-7.877v-78.769
		c0-2.363,0.788-3.938,2.363-5.514c1.575-1.575,3.151-2.363,5.514-2.363h78.769c4.726,0,7.877,3.151,7.877,7.877v78.769
		C189.871,416.053,185.933,419.991,181.994,419.991z M111.102,404.237h63.015v-63.015h-63.015V404.237z"/>
	<path style="fill:#183651;" d="M281.243,412.114H265.49c0-2.363,0-4.726,0-7.877l15.754-0.788
		C281.243,406.6,281.243,408.964,281.243,412.114z"/>
	<path style="fill:#183651;" d="M264.702,390.847c-0.788-4.726-1.575-9.452-2.363-14.178l15.754-3.151
		c0.788,4.726,2.363,10.24,2.363,14.966L264.702,390.847z M258.4,363.277c-1.575-4.726-3.151-8.665-4.726-13.391l14.178-6.302
		c2.363,4.726,3.938,9.452,5.514,14.178L258.4,363.277z M247.373,337.284c-2.363-3.938-4.726-7.877-7.089-12.603l13.391-8.665
		c3.151,4.726,5.514,8.665,7.877,13.391L247.373,337.284z M232.407,312.865c-3.151-3.938-6.302-7.089-9.452-11.028l11.815-11.028
		c3.151,3.938,7.089,7.877,10.24,11.815L232.407,312.865z M213.502,292.385c-3.151-3.151-7.089-6.302-11.028-9.452l9.452-12.603
		c3.938,3.151,7.877,6.302,11.815,10.24L213.502,292.385z M190.659,275.056c-3.938-2.363-7.877-4.726-11.815-7.089l7.089-14.178
		c4.726,2.363,9.452,4.726,13.391,7.877L190.659,275.056z M166.24,262.453c-3.938-1.575-8.665-3.151-13.391-4.726l4.726-14.966
		c4.726,1.575,9.452,3.151,14.178,5.514L166.24,262.453z M138.671,253.788c-4.726-0.788-9.452-1.575-14.178-2.363l2.363-15.754
		c4.726,0.788,10.24,1.575,14.966,2.363L138.671,253.788z"/>
	<path style="fill:#183651;" d="M111.102,249.85c-2.363,0-4.726,0-7.877,0v-15.754c3.151,0,5.514,0,7.877,0V249.85z"/>
</g>
<g>
</g>
<g>
</g>
<g>
</g>
<g>
</g>
<g>
</g>
<g>
</g>
<g>
</g>
<g>
</g>
<g>
</g>
<g>
</g>
<g>
</g>
<g>
</g>
<g>
</g>
<g>
</g>
<g>
</g>
</svg>
